<?xml version="1.0" encoding="UTF-8"?>
<svg width="42px" height="19px" viewBox="0 0 42 19" version="1.1" xmlns="http://www.w3.org/2000/svg" xmlns:xlink="http://www.w3.org/1999/xlink">
    <title>arrow</title>
    <g id="Page-1" stroke="none" stroke-width="1" fill="none" fill-rule="evenodd">
        <g id="Desktop-HD" transform="translate(-816.000000, -1268.000000)" fill="#FFFFFF" fill-rule="nonzero">
            <g id="arrow" transform="translate(816.000000, 1268.000000)">
                <path d="M5.33460511,7.38385556 C6.10210106,6.23058363 10.4393248,2.84285583 10.6356608,1.97790388 C10.7963008,1.25710393 10.5285648,0.626407963 10.1537488,0.33809598 C8.9221889,-0.580919965 8.10114894,0.608391964 7.51214098,1.13096793 L3.12137324,5.25751169 C0.854589376,7.16761557 -0.823186524,7.97851152 0.426221402,10.1589114 C1.51498934,12.0690153 4.97763713,15.0603111 6.85174102,16.483887 L9.20776488,18.2678469 C10.4036288,18.8084469 11.7244287,17.601111 11.1711168,16.267647 C10.8855408,15.6009111 5.12042112,11.6725833 4.54926916,10.4111914 C10.8319968,10.1228714 17.1861244,9.92465541 23.468852,9.67237542 L37.9798192,9.43811944 C39.6040431,9.43811944 41.317515,9.76247942 41.5673949,8.21276751 C41.8708269,6.26662363 39.996715,6.44682362 38.4260351,6.44682362 C36.8196512,6.44682362 35.2132753,6.41078362 33.5890434,6.41078362 C26.8244038,6.44682362 21.3270122,6.89731959 14.7051566,7.04147958 C11.6173407,7.11355958 8.44027692,7.40187956 5.33460511,7.38385556 Z" id="Path" transform="translate(20.800001, 9.200000) scale(-1, 1) translate(-20.800001, -9.200000) "></path>
            </g>
        </g>
    </g>
</svg>